<?xml version="1.0" standalone="no"?>
<!DOCTYPE svg PUBLIC "-//W3C//DTD SVG 20010904//EN"
 "http://www.w3.org/TR/2001/REC-SVG-20010904/DTD/svg10.dtd">
<svg version="1.0" xmlns="http://www.w3.org/2000/svg"
 width="564.000000pt" height="284.000000pt" viewBox="0 0 564.000000 284.000000"
 preserveAspectRatio="xMidYMid meet">

<g transform="translate(0.000000,284.000000) scale(0.100000,-0.100000)"
fill="#000000" stroke="none">
<path d="M0 1420 l0 -1420 2820 0 2820 0 0 1420 0 1420 -2820 0 -2820 0 0
-1420z m4678 1045 c-2 -19 -1 -35 3 -35 4 0 9 -15 12 -32 17 -102 18 -118 8
-118 -6 0 -11 17 -11 38 0 20 -5 44 -10 52 -7 12 -10 12 -10 1 0 -7 -6 -11
-14 -8 -10 4 -13 1 -9 -9 4 -11 9 -12 19 -3 12 9 14 4 13 -32 0 -34 -2 -39 -9
-24 -7 17 -9 17 -9 3 -1 -10 -5 -18 -11 -18 -5 0 -10 -5 -10 -11 0 -8 4 -8 14
0 10 9 16 9 21 1 4 -6 15 -8 24 -5 16 5 19 -3 24 -57 3 -35 9 -78 13 -97 6
-30 5 -34 -11 -28 -10 4 -23 3 -29 -2 -6 -4 -33 -11 -61 -15 -27 -4 -59 -9
-70 -11 -11 -2 -26 -4 -33 -4 -9 -1 -12 -45 -11 -190 0 -143 4 -189 13 -185
20 8 123 -98 152 -156 23 -45 29 -72 32 -145 5 -125 -18 -187 -105 -274 -40
-40 -69 -61 -78 -57 -13 5 -15 -45 -15 -396 0 -221 -2 -399 -4 -397 -2 2 -7
461 -10 1019 -3 558 -6 1031 -6 1051 0 21 -8 44 -20 57 l-21 22 -458 0 c-437
0 -460 -1 -482 -19 l-24 -19 -5 -1064 c-3 -584 -7 -959 -8 -833 -2 127 -3 429
-2 673 0 258 -3 442 -8 442 -9 0 -52 106 -52 129 0 15 47 14 53 -1 3 -7 5 135
6 316 1 351 2 360 51 386 20 11 148 12 430 3 133 -4 304 6 265 15 -11 3 23 11
75 18 52 7 151 22 220 33 173 27 163 28 158 -14z m-720 -42 c-16 -2 -40 -2
-55 0 -16 2 -3 4 27 4 30 0 43 -2 28 -4z m165 0 c-24 -2 -62 -2 -85 0 -24 2
-5 4 42 4 47 0 66 -2 43 -4z m330 -48 c18 -13 16 -14 -15 -18 -30 -3 -29 -4
10 -5 39 -2 42 -4 42 -31 0 -21 -6 -30 -21 -34 -19 -5 -20 -10 -14 -64 10 -81
22 -87 15 -8 -4 48 -2 65 7 65 9 0 12 -30 12 -118 l-1 -118 -272 -44 c-149
-24 -282 -44 -296 -45 -14 -2 -71 -10 -128 -20 -57 -9 -109 -14 -116 -12 -14
6 -41 182 -39 259 2 62 35 121 82 145 20 10 38 21 39 26 2 4 16 7 30 8 15 0
52 7 82 14 82 19 559 19 583 0z m-3236 -127 c-3 -7 -5 -2 -5 12 0 14 2 19 5
13 2 -7 2 -19 0 -25z m-709 -450 l3 -98 79 0 80 0 0 -55 0 -55 -81 0 -80 0 3
-200 3 -200 26 -26 c19 -18 39 -26 70 -29 24 -1 48 -3 52 -4 4 0 7 -25 5 -53
l-3 -53 -42 -3 c-62 -5 -119 15 -159 53 -61 60 -68 87 -74 310 l-5 200 -37 3
-38 3 0 54 0 54 38 3 37 3 3 85 c1 47 4 91 7 98 3 9 21 12 57 10 l53 -3 3 -97z
m2810 -215 l-3 -318 -27 -57 c-67 -144 -214 -224 -362 -197 -78 14 -128 40
-183 96 -57 59 -80 106 -95 192 -21 124 13 233 100 320 72 72 130 96 232 96
87 0 106 -6 185 -55 l35 -22 0 125 c0 68 3 127 7 130 3 4 31 7 60 7 l54 0 -3
-317z m1622 -124 l0 -440 -52 3 -53 3 -3 438 -2 437 55 0 55 0 0 -441z m-3723
379 c-3 -8 -6 -5 -6 6 -1 11 2 17 5 13 3 -3 4 -12 1 -19z m-59 -175 l-3 -58
-76 -6 c-90 -7 -120 -25 -149 -83 -18 -39 -20 -61 -20 -269 l0 -227 -54 0
c-40 0 -55 4 -60 16 -10 26 -7 375 4 443 13 80 38 128 88 173 53 48 106 65
210 67 l63 1 -3 -57z m483 21 c61 -34 128 -106 159 -171 23 -49 41 -182 24
-184 -65 -4 -439 -2 -446 2 -7 5 -5 24 8 58 l18 51 141 0 c78 0 144 3 148 6
20 20 -76 124 -132 143 -190 63 -360 -155 -263 -339 64 -124 210 -163 321 -86
20 14 42 26 47 26 12 0 74 -59 74 -70 0 -5 -17 -22 -37 -39 -112 -92 -299 -95
-409 -7 l-34 27 0 263 0 262 28 21 c77 57 132 74 229 68 55 -3 84 -10 124 -31z
m619 -24 l0 -60 -95 0 -95 0 -2 -287 -3 -288 -55 0 -55 0 -3 335 c-1 184 0
341 3 347 3 10 43 13 155 13 l150 0 0 -60z m1280 57 c0 -3 147 -394 170 -452
11 -29 15 -20 102 213 l91 242 59 0 c38 0 58 -4 58 -12 0 -18 -269 -735 -296
-789 -28 -57 -88 -109 -125 -109 -22 0 -30 7 -43 41 l-16 40 42 42 c25 24 50
62 60 90 17 47 17 47 -12 119 -120 306 -120 307 -120 453 0 104 2 125 15 125
8 0 15 -1 15 -3z m937 -14 c9 -4 13 -25 13 -69 l0 -63 -35 15 c-148 61 -310
-79 -292 -254 15 -147 166 -250 290 -199 l37 16 0 -64 c0 -35 -5 -67 -11 -70
-6 -4 -47 -7 -92 -8 -105 -1 -170 27 -245 104 -69 71 -95 137 -96 244 -2 214
164 378 363 358 30 -2 60 -7 68 -10z m-2102 -12 c52 -23 107 -85 131 -147 17
-43 19 -77 19 -284 l0 -235 -55 0 -55 0 -5 235 c-6 259 -10 281 -70 317 -28
16 -30 21 -30 75 0 65 4 67 65 39z m-78 -113 c-3 -8 -6 -5 -6 6 -1 11 2 17 5
13 3 -3 4 -12 1 -19z m-1082 -222 c1 -97 -2 -179 -6 -182 -4 -2 -18 22 -30 53
-28 74 -31 185 -5 261 30 89 39 61 41 -132z m2 -343 c-3 -10 -5 -2 -5 17 0 19
2 27 5 18 2 -10 2 -26 0 -35z m2159 -785 c-19 -27 -21 -19 -4 18 7 14 14 21
16 15 2 -6 -4 -21 -12 -33z m-966 -6 c0 -15 -2 -15 -10 -2 -13 20 -13 33 0 25
6 -3 10 -14 10 -23z m-1002 -39 c-10 -2 -26 -2 -35 0 -10 3 -2 5 17 5 19 0 27
-2 18 -5z m515 0 c-90 -2 -236 -2 -325 0 -90 1 -17 3 162 3 179 0 252 -2 163
-3z m214 1 c-3 -3 -12 -4 -19 -1 -8 3 -5 6 6 6 11 1 17 -2 13 -5z m1474 -15
c-16 -6 -28 -6 -35 1 -7 7 1 10 25 9 32 0 33 -1 10 -10z m739 3 c-8 -4 -170
-5 -360 -2 l-345 6 360 2 c198 1 353 -2 345 -6z m88 1 c-10 -2 -28 -2 -40 0
-13 2 -5 4 17 4 22 1 32 -1 23 -4z"/>
<path d="M4546 2461 c-19 -7 -19 -8 1 -13 14 -4 24 0 27 8 6 15 1 16 -28 5z"/>
<path d="M4465 2451 c18 -7 17 -9 -10 -18 l-30 -10 28 -6 c15 -4 27 -11 27
-15 0 -5 9 -18 20 -29 16 -17 20 -39 23 -115 l3 -93 2 95 c2 104 -8 137 -48
157 -22 11 -15 19 13 14 5 -1 6 3 3 8 -4 5 0 12 6 14 7 3 -3 5 -22 6 -27 0
-30 -2 -15 -8z"/>
<path d="M4615 2450 c-3 -5 3 -10 15 -10 12 0 18 5 15 10 -3 6 -10 10 -15 10
-5 0 -12 -4 -15 -10z"/>
<path d="M4516 2431 c-4 -7 -5 -15 -2 -18 9 -9 19 4 14 18 -4 11 -6 11 -12 0z"/>
<path d="M4388 2423 c6 -2 18 -2 25 0 6 3 1 5 -13 5 -14 0 -19 -2 -12 -5z"/>
<path d="M4536 2405 c-9 -26 -7 -32 5 -12 6 10 9 21 6 23 -2 3 -7 -2 -11 -11z"/>
<path d="M4544 2349 c1 -22 20 -27 24 -6 2 8 -3 17 -11 20 -9 3 -14 -1 -13
-14z"/>
<path d="M4582 2281 c-9 -5 -10 -21 -2 -61 10 -51 19 -74 21 -54 1 5 2 23 4
39 1 17 6 40 9 51 8 23 -12 38 -32 25z m15 -38 c-3 -10 -5 -4 -5 12 0 17 2 24
5 18 2 -7 2 -21 0 -30z"/>
<path d="M4670 2221 c0 -6 5 -13 10 -16 6 -3 10 1 10 9 0 9 -4 16 -10 16 -5 0
-10 -4 -10 -9z"/>
<path d="M4523 2110 c0 -30 2 -43 4 -27 2 15 2 39 0 55 -2 15 -4 2 -4 -28z"/>
<path d="M4562 2143 c-12 -2 -20 -8 -17 -13 6 -10 45 -1 45 11 0 5 -1 8 -2 8
-2 -1 -13 -4 -26 -6z"/>
<path d="M4599 2130 l-24 -19 35 -1 c26 0 31 3 20 10 -10 6 -11 10 -2 10 6 0
12 5 12 10 0 16 -16 12 -41 -10z"/>
<path d="M4690 2115 c14 -16 40 -20 40 -6 0 9 -24 21 -42 21 -6 0 -6 -6 2 -15z"/>
<path d="M4552 2102 c-7 -5 -6 -13 3 -25 8 -12 15 -14 20 -8 3 6 0 11 -7 12
-7 0 -4 4 6 8 16 6 17 9 4 13 -8 4 -20 3 -26 0z"/>
<path d="M3472 1660 c0 -19 2 -27 5 -17 2 9 2 25 0 35 -3 9 -5 1 -5 -18z"/>
<path d="M4522 1583 c-1 -39 3 -75 8 -78 6 -3 9 -23 9 -43 l-2 -37 -7 35 c-4
21 -8 -28 -9 -124 l-1 -159 25 23 c65 61 75 210 20 291 -22 32 -32 60 -36 104
l-6 60 -1 -72z"/>
<path d="M4523 1115 c0 -27 2 -38 4 -22 2 15 2 37 0 50 -2 12 -4 0 -4 -28z"/>
<path d="M3983 2373 c4 -3 1 -13 -6 -21 -9 -12 -9 -16 1 -19 6 -3 12 -11 12
-19 0 -8 6 -17 14 -20 10 -4 13 -20 12 -55 -1 -28 1 -52 6 -55 8 -5 10 5 13
76 2 56 12 63 68 48 47 -12 74 -5 47 13 -8 5 -27 7 -42 5 -25 -5 -39 6 -20 17
4 2 1 2 -6 0 -8 -1 -20 -3 -28 -3 -8 0 -14 -7 -14 -15 0 -9 -9 -15 -22 -15
-20 0 -20 1 -5 18 26 29 22 52 -10 52 -14 0 -23 -3 -20 -7z"/>
<path d="M4200 2365 c0 -9 9 -15 23 -14 20 1 20 2 2 7 l-20 5 20 8 c19 7 19 8
-2 8 -14 1 -23 -5 -23 -14z"/>
<path d="M4279 2363 c-11 -12 -8 -13 17 -7 37 9 39 10 15 17 -11 3 -26 -2 -32
-10z"/>
<path d="M4390 2373 c-8 -2 -29 -11 -47 -19 -17 -8 -38 -14 -47 -14 -9 0 -16
-3 -16 -7 0 -9 129 -8 138 1 3 3 -4 6 -15 6 -35 0 -35 14 -1 26 31 12 20 18
-12 7z"/>
<path d="M3910 2360 c8 -5 22 -9 30 -9 10 0 8 3 -5 9 -27 12 -43 12 -25 0z"/>
<path d="M3840 2352 c0 -5 7 -9 15 -9 8 0 15 4 15 9 0 4 -7 8 -15 8 -8 0 -15
-4 -15 -8z"/>
<path d="M4176 2324 c-8 -20 1 -34 21 -34 12 0 13 3 4 13 -8 10 -7 17 1 25 9
9 8 12 -4 12 -9 0 -19 -7 -22 -16z"/>
<path d="M4250 2311 c0 -17 2 -31 4 -31 8 0 13 51 5 56 -5 3 -9 -9 -9 -25z"/>
<path d="M3812 2310 c0 -14 2 -19 5 -12 2 6 2 18 0 25 -3 6 -5 1 -5 -13z"/>
<path d="M3720 2312 c0 -5 -11 -15 -25 -22 -18 -10 -27 -26 -35 -67 -7 -30 -9
-57 -6 -60 3 -4 6 4 6 16 0 14 4 20 12 15 7 -4 8 -3 4 5 -13 20 3 59 37 91 17
16 26 30 20 30 -7 0 -13 -4 -13 -8z"/>
<path d="M3743 2298 c-6 -7 -8 -20 -4 -28 6 -16 31 -25 31 -12 0 4 -6 14 -12
21 -11 10 -9 11 7 6 12 -4 16 -3 10 2 -5 4 -13 12 -16 16 -3 4 -11 2 -16 -5z"/>
<path d="M3915 2300 c-3 -5 -1 -10 4 -10 6 0 11 5 11 10 0 6 -2 10 -4 10 -3 0
-8 -4 -11 -10z"/>
<path d="M4230 2305 c-1 -5 -1 -14 0 -20 1 -5 4 -25 6 -44 1 -19 7 -37 12 -40
5 -3 12 -13 15 -21 3 -8 4 -1 4 17 -1 17 -4 29 -7 26 -3 -2 -10 17 -16 44 -6
26 -13 44 -14 38z"/>
<path d="M3940 2280 c-12 -7 -7 -12 20 -24 35 -14 50 -8 50 19 0 6 -4 4 -9 -4
-8 -12 -14 -12 -33 -3 l-23 13 23 -5 c12 -2 20 0 16 5 -7 12 -25 11 -44 -1z"/>
<path d="M4055 2280 c-8 -13 5 -13 25 0 13 8 13 10 -2 10 -9 0 -20 -4 -23 -10z"/>
<path d="M3795 2272 c4 -8 -2 -23 -15 -37 -14 -15 -20 -31 -17 -47 4 -23 4
-23 6 2 1 16 13 33 36 49 19 13 35 28 35 34 0 6 -5 5 -13 -2 -10 -8 -17 -7
-27 2 -10 9 -11 9 -5 -1z"/>
<path d="M4330 2260 c0 -6 8 -10 18 -8 9 2 16 -3 15 -9 -2 -7 3 -13 11 -13 9
0 12 7 9 20 -6 21 -53 29 -53 10z"/>
<path d="M3840 2242 c0 -7 -7 -12 -15 -12 -8 0 -17 -11 -21 -25 -3 -14 -10
-25 -15 -25 -5 0 -9 -7 -9 -15 0 -8 5 -15 10 -15 6 0 10 -9 10 -19 0 -11 4
-23 10 -26 18 -11 29 -41 20 -54 -6 -10 -12 -5 -25 18 -9 18 -19 31 -22 28 -2
-3 1 -15 7 -27 10 -18 8 -26 -11 -46 -23 -25 -11 -35 13 -10 8 7 24 17 36 20
12 4 20 12 17 17 -8 12 9 11 22 -2 5 -5 29 -10 52 -11 23 0 44 -4 47 -9 3 -5
10 -6 16 -3 6 4 5 10 -3 15 -10 6 -11 9 -1 9 21 0 54 41 49 61 -3 10 -1 19 5
19 5 0 12 -8 14 -17 3 -10 23 -27 45 -37 34 -17 44 -18 79 -7 21 6 42 17 46
23 5 8 1 9 -12 4 -10 -5 -37 -10 -59 -13 -46 -6 -89 21 -107 66 l-10 26 -9
-23 c-8 -20 -11 -21 -31 -10 -13 7 -25 14 -27 15 -2 1 9 13 24 27 15 14 25 31
22 38 -3 8 -10 2 -17 -15 -10 -19 -18 -26 -29 -21 -37 15 -51 15 -66 1 -8 -9
-15 -24 -15 -34 0 -14 3 -12 13 7 13 25 47 34 54 14 2 -7 -4 -20 -14 -29 -16
-17 -16 -17 4 -11 21 7 83 -17 83 -31 0 -3 -11 -16 -26 -29 -37 -35 -103 -33
-146 4 -27 25 -31 36 -31 75 0 31 6 53 18 67 10 11 15 23 12 27 -4 3 -7 1 -7
-5z"/>
<path d="M4345 2185 c7 -62 11 -73 21 -62 4 3 2 24 -4 47 -9 37 -8 40 12 41
20 1 20 2 1 6 -11 3 -24 10 -28 17 -5 6 -5 -16 -2 -49z"/>
<path d="M4106 2214 c-9 -23 -1 -28 14 -9 16 19 44 20 37 1 -3 -8 -1 -17 6
-19 9 -3 8 -8 -2 -20 -19 -24 -34 -21 -25 5 6 19 5 21 -8 11 -8 -7 -18 -10
-21 -6 -4 3 -7 1 -7 -6 0 -6 11 -16 25 -23 43 -19 70 25 42 70 -12 18 -54 15
-61 -4z"/>
<path d="M4386 2178 c-3 -13 -1 -27 4 -32 7 -7 10 1 10 22 0 37 -5 41 -14 10z"/>
<path d="M3917 2173 c-4 -3 -7 -11 -7 -17 0 -6 5 -5 12 2 6 6 9 14 7 17 -3 3
-9 2 -12 -2z"/>
<path d="M4001 2164 c0 -11 3 -14 6 -6 3 7 2 16 -1 19 -3 4 -6 -2 -5 -13z"/>
<path d="M4241 2164 c0 -11 3 -14 6 -6 3 7 2 16 -1 19 -3 4 -6 -2 -5 -13z"/>
<path d="M3671 2134 c0 -11 3 -14 6 -6 3 7 2 16 -1 19 -3 4 -6 -2 -5 -13z"/>
<path d="M4281 2134 c0 -11 3 -14 6 -6 3 7 2 16 -1 19 -3 4 -6 -2 -5 -13z"/>
<path d="M3900 2129 c0 -24 25 -30 47 -13 17 14 17 15 -6 8 -15 -4 -27 -1 -32
7 -7 11 -9 11 -9 -2z"/>
<path d="M4226 2125 c-3 -8 -1 -15 4 -15 6 0 10 7 10 15 0 8 -2 15 -4 15 -2 0
-6 -7 -10 -15z"/>
<path d="M4253 2115 c0 -16 4 -22 13 -18 8 3 14 -1 14 -11 0 -9 5 -16 11 -16
5 0 8 4 5 9 -3 5 15 11 40 13 33 2 48 -1 55 -12 7 -12 8 -10 9 8 0 18 4 21 23
17 12 -3 30 0 40 8 17 12 15 13 -22 13 -23 -1 -41 -4 -41 -7 0 -4 -21 -9 -47
-13 -39 -5 -53 -2 -74 13 l-26 20 0 -24z"/>
<path d="M3690 2111 c0 -6 7 -14 15 -17 12 -5 13 -9 4 -21 -9 -10 -9 -17 -1
-25 9 -9 12 -7 12 9 0 20 13 35 33 39 20 4 20 6 2 13 -12 5 -23 4 -27 -2 -4
-7 -12 -6 -22 2 -11 10 -16 10 -16 2z"/>
<path d="M4230 2083 c0 -4 5 -15 10 -23 8 -12 2 -17 -28 -27 l-37 -11 46 -1
c30 -1 51 4 59 14 11 13 10 14 -4 9 -9 -3 -16 -1 -16 6 0 6 -7 18 -15 26 -8 9
-15 12 -15 7z"/>
<path d="M3661 2063 c0 -7 6 -31 15 -53 9 -23 14 -43 11 -46 -14 -14 19 -31
48 -24 44 10 44 10 52 10 3 0 -2 9 -12 20 -10 11 -28 20 -39 19 -19 0 -19 -1
4 -10 20 -8 22 -12 10 -19 -26 -17 -49 -12 -45 9 2 11 -2 25 -9 30 -7 6 -11
23 -9 39 3 19 2 23 -5 13 -8 -11 -11 -10 -15 5 -2 10 -5 13 -6 7z"/>
<path d="M4348 2063 c7 -3 16 -2 19 1 4 3 -2 6 -13 5 -11 0 -14 -3 -6 -6z"/>
<path d="M4010 2045 c-10 -12 -9 -15 6 -16 18 0 18 -1 -1 -9 -17 -7 -15 -9 13
-9 35 -1 38 5 18 32 -16 21 -20 21 -36 2z"/>
<path d="M4070 2050 c0 -5 5 -10 10 -10 6 0 10 5 10 10 0 6 -4 10 -10 10 -5 0
-10 -4 -10 -10z"/>
<path d="M4390 2050 c-9 -6 -10 -10 -3 -10 6 0 15 5 18 10 8 12 4 12 -15 0z"/>
<path d="M4123 2043 c9 -2 23 -2 30 0 6 3 -1 5 -18 5 -16 0 -22 -2 -12 -5z"/>
<path d="M3716 2016 c3 -9 11 -16 16 -16 13 0 5 23 -10 28 -7 2 -10 -2 -6 -12z"/>
<path d="M4085 2025 c23 -8 83 -10 79 -3 -3 4 -24 8 -47 7 -23 0 -37 -2 -32
-4z"/>
<path d="M3802 1989 c-12 -19 -11 -19 8 -9 11 6 20 15 20 20 0 17 -15 11 -28
-11z"/>
<path d="M3905 1997 c-4 -10 -5 -21 -1 -24 10 -10 18 4 13 24 -4 17 -4 17 -12
0z"/>
<path d="M4058 1993 c7 -3 16 -2 19 1 4 3 -2 6 -13 5 -11 0 -14 -3 -6 -6z"/>
<path d="M3825 1960 c-3 -5 -1 -10 4 -10 6 0 11 5 11 10 0 6 -2 10 -4 10 -3 0
-8 -4 -11 -10z"/>
<path d="M2892 1579 c-172 -86 -177 -344 -9 -431 112 -57 253 -1 304 119 19
47 16 150 -6 198 -53 114 -184 166 -289 114z"/>
</g>
</svg>
